<?xml version="1.0" encoding="UTF-8"?>
<!DOCTYPE svg PUBLIC "-//W3C//DTD SVG 1.1//EN" "http://www.w3.org/Graphics/SVG/1.1/DTD/svg11.dtd">
<svg xmlns="http://www.w3.org/2000/svg" version="1.1" width="1332px" height="1361px" style="shape-rendering:geometricPrecision; text-rendering:geometricPrecision; image-rendering:optimizeQuality; fill-rule:evenodd; clip-rule:evenodd" xmlns:xlink="http://www.w3.org/1999/xlink">
<g><path style="opacity:1" fill="#f9f9f9" d="M -0.5,-0.5 C 443.5,-0.5 887.5,-0.5 1331.5,-0.5C 1331.5,441.5 1331.5,883.5 1331.5,1325.5C 887.5,1325.5 443.5,1325.5 -0.5,1325.5C -0.5,883.5 -0.5,441.5 -0.5,-0.5 Z"/></g>
<g><path style="opacity:1" fill="#030303" d="M 322.5,442.5 C 323.289,442.217 323.956,441.717 324.5,441C 317.842,440.5 311.175,440.334 304.5,440.5C 297.528,440.532 291.028,438.865 285,435.5C 284.409,434.517 284.743,433.85 286,433.5C 296.163,432.793 306.33,431.96 316.5,431C 320.019,430.605 323.352,429.605 326.5,428C 314.09,427.876 301.757,426.876 289.5,425C 284.349,424.09 279.682,422.09 275.5,419C 276.944,417.936 278.611,417.436 280.5,417.5C 293.151,418.588 305.817,418.754 318.5,418C 321.7,417.899 324.7,417.232 327.5,416C 309.409,415.05 292.076,411.05 275.5,404C 273.077,402.429 271.744,400.263 271.5,397.5C 280.559,398.513 289.559,400.013 298.5,402C 306.131,403.069 313.798,403.569 321.5,403.5C 325.375,403.915 329.042,403.415 332.5,402C 331.906,401.536 331.239,401.369 330.5,401.5C 310.159,398.492 291.826,390.826 275.5,378.5C 274.833,377.167 274.167,375.833 273.5,374.5C 274.333,374.167 275.167,373.833 276,373.5C 287.498,377.333 298.998,381.166 310.5,385C 319.675,387.836 329.008,389.503 338.5,390C 317.694,382.523 299.86,370.689 285,354.5C 282.283,350.97 280.783,346.97 280.5,342.5C 282.199,342.34 283.866,342.506 285.5,343C 301.193,355.518 318.193,366.018 336.5,374.5C 329.879,367.371 322.713,360.037 315,352.5C 310.191,346.549 306.691,339.883 304.5,332.5C 305.723,331.386 307.056,331.219 308.5,332C 346.51,368.185 390.843,393.852 441.5,409C 453.193,414.508 463.86,421.508 473.5,430C 492.669,448.831 514.335,464.164 538.5,476C 549.65,481.71 561.317,483.377 573.5,481C 578.714,479.726 583.381,477.393 587.5,474C 595.636,466.865 603.47,459.365 611,451.5C 616.329,445.516 620.663,438.849 624,431.5C 629.378,425.426 635.878,423.926 643.5,427C 647.095,428.713 650.595,430.547 654,432.5C 674.735,425.032 695.568,418.199 716.5,412C 693.833,426.667 671.167,441.333 648.5,456C 640.112,460.861 631.446,465.194 622.5,469C 610.365,478.796 600.032,490.13 591.5,503C 596.746,506.089 602.412,508.423 608.5,510C 639.51,516.873 670.844,519.206 702.5,517C 719.647,529.742 737.314,541.742 755.5,553C 776.145,564.823 798.145,572.989 821.5,577.5C 820.91,578.799 819.91,579.632 818.5,580C 807.753,581.461 797.087,580.794 786.5,578C 780.286,576.617 774.286,574.95 768.5,573C 772.217,576.385 776.217,579.385 780.5,582C 794.481,589.158 808.814,595.491 823.5,601C 826.003,602.784 826.003,604.451 823.5,606C 814.711,606.909 806.044,606.242 797.5,604C 782.783,598.477 769.116,591.144 756.5,582C 755.833,581.333 755.167,581.333 754.5,582C 768.345,597.522 783.679,611.189 800.5,623C 802.037,624.11 802.703,625.61 802.5,627.5C 794.813,627.661 787.813,625.494 781.5,621C 769.452,612.625 758.285,603.125 748,592.5C 750.151,598.462 753.151,604.129 757,609.5C 765.605,620.609 774.772,631.275 784.5,641.5C 781.465,642.665 778.465,642.498 775.5,641C 760.667,631.5 748.5,619.333 739,604.5C 740.339,610.155 742.672,615.488 746,620.5C 751.673,629.847 757.839,638.847 764.5,647.5C 762.102,648.724 759.769,648.558 757.5,647C 746.311,637.128 737.145,625.628 730,612.5C 729.808,615.947 730.475,619.28 732,622.5C 736.059,631.619 740.892,640.286 746.5,648.5C 741.505,648.771 737.338,646.771 734,642.5C 728.834,635.505 724.167,628.172 720,620.5C 719.333,623.167 719.333,625.833 720,628.5C 721.541,632.482 722.708,636.482 723.5,640.5C 721.097,640.607 719.264,639.607 718,637.5C 713.756,627.134 707.256,618.634 698.5,612C 688.761,606.985 678.428,603.985 667.5,603C 622.883,604.243 579.55,597.41 537.5,582.5C 536.044,592.119 534.877,601.786 534,611.5C 531.815,623.696 524.648,628.863 512.5,627C 504.874,625.422 497.208,624.089 489.5,623C 486.652,619.903 487.319,617.737 491.5,616.5C 500.149,617.926 508.816,619.259 517.5,620.5C 520.111,620.444 522.278,619.444 524,617.5C 527.932,609.151 529.765,600.318 529.5,591C 530.839,582.927 529.005,581.761 524,587.5C 523.248,584.106 523.415,580.773 524.5,577.5C 545.024,561.814 562.191,543.147 576,521.5C 579.039,514.635 581.705,507.635 584,500.5C 593.715,486.448 605.215,473.948 618.5,463C 625.833,459.667 633.167,456.333 640.5,453C 645.142,448.883 647.475,443.716 647.5,437.5C 644.962,437.507 642.462,437.841 640,438.5C 636.532,437.419 633.032,436.919 629.5,437C 618.3,455.202 603.966,470.536 586.5,483C 569.875,491.577 553.208,491.577 536.5,483C 522.044,476.275 508.378,468.275 495.5,459C 481.459,446.624 467.126,434.624 452.5,423C 439.355,415.427 425.355,410.094 410.5,407C 403.833,403.667 397.167,400.333 390.5,397C 385.475,395.394 381.808,396.894 379.5,401.5C 378.5,401.833 377.5,402.167 376.5,402.5C 372.725,400.57 369.558,401.237 367,404.5C 365.052,411.865 366.885,418.032 372.5,423C 375.339,424.92 378.339,426.587 381.5,428C 392.172,431.001 402.838,434.001 413.5,437C 416.661,438.413 419.661,440.08 422.5,442C 435.121,458.076 447.621,474.243 460,490.5C 471.309,503.15 483.809,514.317 497.5,524C 499.279,523.956 500.945,523.289 502.5,522C 509.239,515.357 514.073,507.524 517,498.5C 516.771,511.629 512.104,522.962 503,532.5C 486.386,549.124 468.053,563.457 448,575.5C 447.294,577.971 447.627,580.305 449,582.5C 453.408,587.073 457.241,592.073 460.5,597.5C 459.868,599.965 458.368,601.631 456,602.5C 449.951,595.452 444.284,588.119 439,580.5C 438.333,578.167 438.333,575.833 439,573.5C 449.097,566.868 458.93,559.868 468.5,552.5C 444.249,538.543 421.583,522.376 400.5,504C 384.294,487.256 366.96,471.923 348.5,458C 343.627,455.064 338.627,452.397 333.5,450C 326.798,449.771 320.131,450.271 313.5,451.5C 310.705,451.547 308.039,451.047 305.5,450C 304.167,449 304.167,448 305.5,447C 311.495,446.585 317.161,445.085 322.5,442.5 Z"/></g>
<g><path style="opacity:1" fill="#838383" d="M 330.5,401.5 C 331.239,401.369 331.906,401.536 332.5,402C 329.042,403.415 325.375,403.915 321.5,403.5C 324.5,402.833 327.5,402.167 330.5,401.5 Z"/></g>
<g><path style="opacity:1" fill="#a7a7a7" d="M 304.5,440.5 C 311.175,440.334 317.842,440.5 324.5,441C 323.956,441.717 323.289,442.217 322.5,442.5C 316.5,441.833 310.5,441.167 304.5,440.5 Z"/></g>
<g><path style="opacity:1" fill="#f6f6f6" d="M 587.5,511.5 C 624.288,522.718 661.954,527.218 700.5,525C 708.958,529.981 716.791,535.814 724,542.5C 724.444,545.957 723.944,549.29 722.5,552.5C 722.93,555.447 724.43,557.781 727,559.5C 727.359,562.62 726.192,565.12 723.5,567C 716.605,571.029 709.605,571.363 702.5,568C 697.862,563.346 692.529,559.679 686.5,557C 665.479,557.202 644.479,557.869 623.5,559C 605.042,557.042 587.042,553.042 569.5,547C 568.549,546.282 568.383,545.449 569,544.5C 577.232,534.707 583.399,523.707 587.5,511.5 Z"/></g>
<g><path style="opacity:1" fill="#afb0b0" d="M 816.5,514.5 C 836.637,521.066 855.97,529.566 874.5,540C 945.049,581.381 999.382,638.214 1037.5,710.5C 1036.3,712.138 1034.96,712.471 1033.5,711.5C 978.954,625.799 903.287,567.299 806.5,536C 806.043,535.586 805.709,535.086 805.5,534.5C 809.699,528.1 813.366,521.433 816.5,514.5 Z"/></g>
<g><path style="opacity:1" fill="#070707" d="M 491.5,560.5 C 492.216,565.034 492.883,569.701 493.5,574.5C 483.441,592.792 471.775,609.959 458.5,626C 459.167,626.667 459.833,626.667 460.5,626C 477.667,610.167 494.833,594.333 512,578.5C 512.667,582.167 512.667,585.833 512,589.5C 483.298,615.871 454.298,641.871 425,667.5C 424.333,661.833 424.333,656.167 425,650.5C 452.424,624.263 474.59,594.263 491.5,560.5 Z"/></g>
<g><path style="opacity:1" fill="#afafaf" d="M 371.5,607.5 C 382.083,615.744 392.083,624.744 401.5,634.5C 328.873,699.342 280.373,779.342 256,874.5C 251.216,892.303 247.382,910.303 244.5,928.5C 227.5,928.5 210.5,928.5 193.5,928.5C 216.772,800.909 276.105,693.909 371.5,607.5 Z"/></g>
<g><path style="opacity:1" fill="#7495c6" d="M 498.5,763.5 C 513.991,762.504 529.658,762.17 545.5,762.5C 545.737,763.791 545.404,764.791 544.5,765.5C 529.536,763.516 514.203,762.849 498.5,763.5 Z"/></g>
<g><path style="opacity:1" fill="#7b9aca" d="M 871.5,763.5 C 839.61,762.852 807.943,763.519 776.5,765.5C 776.5,764.5 776.5,763.5 776.5,762.5C 808.338,762.168 840.004,762.502 871.5,763.5 Z"/></g>
<g><path style="opacity:1" fill="#7595c7" d="M 972.5,763.5 C 988.992,762.503 1005.66,762.17 1022.5,762.5C 1022.74,763.791 1022.4,764.791 1021.5,765.5C 1005.53,763.515 989.201,762.848 972.5,763.5 Z"/></g>
<g><path style="opacity:1" fill="#7596c7" d="M 1088.5,763.5 C 1104.99,762.503 1121.66,762.17 1138.5,762.5C 1138.74,763.791 1138.4,764.791 1137.5,765.5C 1121.53,763.515 1105.2,762.848 1088.5,763.5 Z"/></g>
<g><path style="opacity:1" fill="#0364af" d="M 871.5,763.5 C 886.859,763.755 901.192,767.589 914.5,775C 922.354,782.897 925.188,792.397 923,803.5C 920.872,816.265 914.372,826.098 903.5,833C 895.499,836.584 887.166,839.084 878.5,840.5C 887.842,841.801 896.842,844.301 905.5,848C 918.822,857.298 922.989,869.798 918,885.5C 913.401,904.101 901.901,916.268 883.5,922C 870.498,926.126 857.164,928.126 843.5,928C 812.502,928.5 781.502,928.667 750.5,928.5C 759.086,874.143 767.753,819.81 776.5,765.5C 807.943,763.519 839.61,762.852 871.5,763.5 Z"/></g>
<g><path style="opacity:1" fill="#0464af" d="M 626.5,762.5 C 649.833,762.5 673.167,762.5 696.5,762.5C 705.324,817.758 713.657,873.092 721.5,928.5C 703.5,928.5 685.5,928.5 667.5,928.5C 667.497,916.457 666.83,904.457 665.5,892.5C 648.167,892.5 630.833,892.5 613.5,892.5C 609.142,904.4 604.475,916.233 599.5,928C 581.491,928.833 563.491,928.666 545.5,927.5C 572.725,872.417 599.725,817.417 626.5,762.5 Z"/></g>
<g><path style="opacity:1" fill="#0364af" d="M 972.5,763.5 C 989.201,762.848 1005.53,763.515 1021.5,765.5C 1015.6,802.271 1009.94,839.104 1004.5,876C 1004.18,886.359 1008.84,893.359 1018.5,897C 1031.67,899.937 1044.34,898.604 1056.5,893C 1065.45,885.604 1070.62,876.104 1072,864.5C 1077.09,830.725 1082.59,797.058 1088.5,763.5C 1105.2,762.848 1121.53,763.515 1137.5,765.5C 1132,800.857 1126.16,836.191 1120,871.5C 1112.52,906.306 1091.02,925.806 1055.5,930C 1033.05,932.534 1010.71,931.867 988.5,928C 968.237,923.409 956.737,910.909 954,890.5C 953.333,882.5 953.333,874.5 954,866.5C 960.249,832.17 966.416,797.837 972.5,763.5 Z"/></g>
<g><path style="opacity:1" fill="#0464af" d="M 498.5,763.5 C 514.203,762.849 529.536,763.516 544.5,765.5C 535.369,819.822 526.369,874.156 517.5,928.5C 493.925,928.827 470.425,928.494 447,927.5C 435.254,890.518 424.754,853.185 415.5,815.5C 409.75,853.167 404.084,890.834 398.5,928.5C 382.833,928.5 367.167,928.5 351.5,928.5C 360.195,873.464 369.029,818.464 378,763.5C 402,762.167 426,762.167 450,763.5C 461.559,800.404 471.559,837.737 480,875.5C 485.852,837.975 492.018,800.642 498.5,763.5 Z"/></g>
<g><path style="opacity:1" fill="#f7f7f8" d="M 822.5,796.5 C 836.212,796.115 849.879,796.615 863.5,798C 870.053,800.73 872.22,805.563 870,812.5C 867.119,820.703 861.286,825.203 852.5,826C 841.172,826.5 829.838,826.667 818.5,826.5C 819.444,816.449 820.777,806.449 822.5,796.5 Z"/></g>
<g><path style="opacity:1" fill="#f3f5f7" d="M 655.5,790.5 C 657.237,793.008 658.07,796.008 658,799.5C 659.788,819.485 661.288,839.485 662.5,859.5C 651.167,859.5 639.833,859.5 628.5,859.5C 637.777,836.612 646.777,813.612 655.5,790.5 Z"/></g>
<g><path style="opacity:1" fill="#f6f7f8" d="M 812.5,859.5 C 824.171,859.333 835.838,859.5 847.5,860C 853.278,860.892 858.611,862.892 863.5,866C 870.378,878.603 867.045,887.603 853.5,893C 838.21,894.399 822.877,894.899 807.5,894.5C 808.408,882.719 810.075,871.052 812.5,859.5 Z"/></g>
<g><path style="opacity:1" fill="#090909" d="M 351.5,991.5 C 361.314,991.113 363.648,994.946 358.5,1003C 354.633,1005.15 351.133,1004.65 348,1001.5C 346.756,997.191 347.923,993.858 351.5,991.5 Z"/></g>
<g><path style="opacity:1" fill="#020202" d="M 408.5,992.5 C 412.5,992.5 416.5,992.5 420.5,992.5C 418.297,1004.18 415.964,1015.85 413.5,1027.5C 413.833,1028.17 414.167,1028.83 414.5,1029.5C 420.018,1023.82 425.351,1017.98 430.5,1012C 435.167,1011.33 439.833,1011.33 444.5,1012C 437.747,1018.08 431.747,1024.75 426.5,1032C 429.736,1039.87 433.069,1047.71 436.5,1055.5C 432.5,1056.83 428.5,1056.83 424.5,1055.5C 422.425,1049.69 420.092,1044.02 417.5,1038.5C 414.849,1040.65 412.349,1042.98 410,1045.5C 409.416,1049.1 408.582,1052.6 407.5,1056C 403.5,1056.67 399.5,1056.67 395.5,1056C 400.405,1034.98 404.738,1013.81 408.5,992.5 Z"/></g>
<g><path style="opacity:1" fill="#010101" d="M 208.5,996.5 C 217.552,996.193 226.552,996.693 235.5,998C 244.251,1000.66 247.417,1006.49 245,1015.5C 242.252,1020.08 238.419,1023.41 233.5,1025.5C 243.159,1029.75 245.659,1036.75 241,1046.5C 236.028,1052.74 229.528,1055.9 221.5,1056C 213.173,1056.5 204.84,1056.67 196.5,1056.5C 200.373,1036.47 204.373,1016.47 208.5,996.5 Z"/></g>
<g><path style="opacity:1" fill="#ebebeb" d="M 218.5,1005.5 C 224.039,1004.64 228.872,1005.97 233,1009.5C 234.596,1015.92 232.096,1019.75 225.5,1021C 222.183,1021.5 218.85,1021.67 215.5,1021.5C 216.245,1016.11 217.245,1010.78 218.5,1005.5 Z"/></g>
<g><path style="opacity:1" fill="#040404" d="M 274.5,1010.5 C 285.303,1010.3 290.97,1015.63 291.5,1026.5C 290.703,1029.82 290.036,1033.15 289.5,1036.5C 280.833,1036.5 272.167,1036.5 263.5,1036.5C 264.793,1048.48 270.793,1051.48 281.5,1045.5C 282.965,1047.6 284.299,1049.77 285.5,1052C 276.395,1058.55 267.062,1058.89 257.5,1053C 248.4,1038.7 250.4,1026.03 263.5,1015C 267.053,1012.88 270.72,1011.38 274.5,1010.5 Z"/></g>
<g><path style="opacity:1" fill="#020202" d="M 390.5,1010.5 C 392.591,1010.32 394.591,1010.65 396.5,1011.5C 397.583,1012.36 397.749,1013.36 397,1014.5C 396.069,1016.46 395.236,1018.46 394.5,1020.5C 391.553,1021.32 388.553,1021.82 385.5,1022C 382.628,1024.54 380.128,1027.37 378,1030.5C 376.304,1039.15 374.804,1047.81 373.5,1056.5C 369.5,1056.5 365.5,1056.5 361.5,1056.5C 364.425,1041.54 367.092,1026.54 369.5,1011.5C 372.833,1011.5 376.167,1011.5 379.5,1011.5C 379.335,1014.52 379.502,1017.52 380,1020.5C 382.738,1016.26 386.238,1012.93 390.5,1010.5 Z"/></g>
<g><path style="opacity:1" fill="#060606" d="M 462.5,1010.5 C 469.596,1010.12 475.596,1012.45 480.5,1017.5C 478.209,1019.29 476.043,1021.29 474,1023.5C 470.157,1019.33 465.824,1018.66 461,1021.5C 460.333,1023.17 460.333,1024.83 461,1026.5C 465.333,1029.17 469.667,1031.83 474,1034.5C 479.402,1048.99 474.235,1056.66 458.5,1057.5C 451.896,1057.03 446.563,1054.2 442.5,1049C 444.373,1046.79 446.54,1044.96 449,1043.5C 453.612,1048.68 458.945,1049.68 465,1046.5C 465.667,1045.17 465.667,1043.83 465,1042.5C 459.635,1038.98 454.635,1034.98 450,1030.5C 448.141,1026.04 448.475,1021.71 451,1017.5C 454.257,1014.05 458.09,1011.71 462.5,1010.5 Z"/></g>
<g><path style="opacity:1" fill="#030303" d="M 506.5,1010.5 C 511.453,1010.36 515.287,1012.36 518,1016.5C 519.02,1015.11 519.853,1013.61 520.5,1012C 523.482,1011.5 526.482,1011.34 529.5,1011.5C 526.862,1026.19 524.029,1040.86 521,1055.5C 518.766,1069.37 510.599,1076.37 496.5,1076.5C 490.614,1075.88 485.614,1073.55 481.5,1069.5C 482.811,1066.86 484.478,1064.53 486.5,1062.5C 501.551,1070.22 509.717,1065.55 511,1048.5C 503.772,1055.32 496.105,1055.99 488,1050.5C 482.166,1036.01 485.333,1023.85 497.5,1014C 500.459,1012.4 503.459,1011.23 506.5,1010.5 Z"/></g>
<g><path style="opacity:1" fill="#020202" d="M 562.5,1010.5 C 568.756,1009.64 570.589,1011.98 568,1017.5C 567.5,1018.5 567,1019.5 566.5,1020.5C 563.553,1021.32 560.553,1021.82 557.5,1022C 554.628,1024.54 552.128,1027.37 550,1030.5C 548.304,1039.15 546.804,1047.81 545.5,1056.5C 541.5,1056.5 537.5,1056.5 533.5,1056.5C 536.425,1041.54 539.092,1026.54 541.5,1011.5C 544.833,1011.5 548.167,1011.5 551.5,1011.5C 551.335,1014.52 551.502,1017.52 552,1020.5C 554.738,1016.26 558.238,1012.93 562.5,1010.5 Z"/></g>
<g><path style="opacity:1" fill="#020202" d="M 649.5,1010.5 C 659.248,1011.25 664.248,1016.58 664.5,1026.5C 664.194,1039.97 658.194,1049.8 646.5,1056C 639.974,1058.91 634.807,1057.41 631,1051.5C 629.291,1058.75 628.124,1066.09 627.5,1073.5C 623.5,1073.5 619.5,1073.5 615.5,1073.5C 619.37,1052.82 623.37,1032.15 627.5,1011.5C 630.833,1011.5 634.167,1011.5 637.5,1011.5C 637.215,1013.29 637.548,1014.95 638.5,1016.5C 641.823,1013.68 645.49,1011.68 649.5,1010.5 Z"/></g>
<g><path style="opacity:1" fill="#020202" d="M 701.5,1010.5 C 710.759,1011.63 715.426,1016.96 715.5,1026.5C 715.194,1039.97 709.194,1049.8 697.5,1056C 691.1,1058.53 685.933,1057.03 682,1051.5C 680.291,1058.75 679.124,1066.09 678.5,1073.5C 674.5,1073.5 670.5,1073.5 666.5,1073.5C 670.37,1052.81 674.37,1032.15 678.5,1011.5C 681.833,1011.5 685.167,1011.5 688.5,1011.5C 688.215,1013.29 688.548,1014.95 689.5,1016.5C 693.061,1013.39 697.061,1011.39 701.5,1010.5 Z"/></g>
<g><path style="opacity:1" fill="#040404" d="M 743.5,1010.5 C 754.303,1010.3 759.97,1015.63 760.5,1026.5C 759.703,1029.82 759.036,1033.15 758.5,1036.5C 749.833,1036.5 741.167,1036.5 732.5,1036.5C 733.766,1048.47 739.766,1051.47 750.5,1045.5C 751.965,1047.6 753.299,1049.77 754.5,1052C 745.395,1058.55 736.062,1058.89 726.5,1053C 717.388,1038.74 719.388,1026.07 732.5,1015C 736.053,1012.88 739.72,1011.38 743.5,1010.5 Z"/></g>
<g><path style="opacity:1" fill="#030303" d="M 318.5,1021.5 C 313.695,1020.51 308.695,1020.18 303.5,1020.5C 303.5,1019.5 303.5,1018.5 303.5,1017.5C 304.15,1015.56 304.483,1013.56 304.5,1011.5C 314.833,1011.5 325.167,1011.5 335.5,1011.5C 336.021,1015.72 334.854,1019.39 332,1022.5C 324.605,1030.06 317.771,1038.06 311.5,1046.5C 317.463,1047.5 323.463,1047.83 329.5,1047.5C 329.148,1050.43 328.482,1053.26 327.5,1056C 316.152,1056.83 304.819,1056.67 293.5,1055.5C 294.189,1053.56 294.689,1051.56 295,1049.5C 303.044,1040.29 310.878,1030.96 318.5,1021.5 Z"/></g>
<g><path style="opacity:1" fill="#000000" d="M 345.5,1011.5 C 349.514,1011.33 353.514,1011.5 357.5,1012C 354.056,1026.72 351.056,1041.55 348.5,1056.5C 344.5,1056.5 340.5,1056.5 336.5,1056.5C 339.372,1041.47 342.372,1026.47 345.5,1011.5 Z"/></g>
<g><path style="opacity:1" fill="#010101" d="M 576.5,1011.5 C 580.514,1011.33 584.514,1011.5 588.5,1012C 585.373,1022.96 583.54,1034.13 583,1045.5C 588.316,1047.54 592.649,1046.21 596,1041.5C 598.231,1031.84 600.398,1022.18 602.5,1012.5C 606.459,1011.34 610.459,1011.17 614.5,1012C 611.056,1026.72 608.056,1041.55 605.5,1056.5C 602.167,1056.5 598.833,1056.5 595.5,1056.5C 595.662,1054.47 595.495,1052.47 595,1050.5C 589.176,1056.33 582.342,1058.16 574.5,1056C 572.951,1054.79 571.785,1053.29 571,1051.5C 570.333,1046.83 570.333,1042.17 571,1037.5C 573.155,1028.89 574.989,1020.22 576.5,1011.5 Z"/></g>
<g><path style="opacity:1" fill="#f2f2f2" d="M 270.5,1020.5 C 278.753,1018.12 282.419,1021.12 281.5,1029.5C 275.794,1029.83 270.128,1029.5 264.5,1028.5C 266.14,1025.53 268.14,1022.87 270.5,1020.5 Z"/></g>
<g><path style="opacity:1" fill="#787878" d="M 303.5,1017.5 C 303.5,1018.5 303.5,1019.5 303.5,1020.5C 308.695,1020.18 313.695,1020.51 318.5,1021.5C 313.167,1021.5 307.833,1021.5 302.5,1021.5C 302.232,1019.9 302.566,1018.57 303.5,1017.5 Z"/></g>
<g><path style="opacity:1" fill="#f2f2f2" d="M 739.5,1020.5 C 747.753,1018.12 751.419,1021.12 750.5,1029.5C 744.794,1029.83 739.128,1029.5 733.5,1028.5C 735.14,1025.53 737.14,1022.87 739.5,1020.5 Z"/></g>
<g><path style="opacity:1" fill="#f1f1f1" d="M 506.5,1020.5 C 510.315,1019.83 513.149,1021.16 515,1024.5C 514.864,1028.52 514.197,1032.52 513,1036.5C 510.771,1043.03 506.271,1045.53 499.5,1044C 495.134,1034.13 497.468,1026.3 506.5,1020.5 Z"/></g>
<g><path style="opacity:1" fill="#f1f1f1" d="M 642.5,1020.5 C 645.97,1019.87 648.804,1020.87 651,1023.5C 653.284,1033.32 650.451,1041.16 642.5,1047C 637.304,1048.62 634.304,1046.79 633.5,1041.5C 634.348,1036.09 635.515,1030.76 637,1025.5C 638.73,1023.6 640.563,1021.93 642.5,1020.5 Z"/></g>
<g><path style="opacity:1" fill="#f0f0f0" d="M 693.5,1020.5 C 696.97,1019.87 699.804,1020.87 702,1023.5C 704.068,1032.29 701.901,1039.79 695.5,1046C 689.748,1049.07 686.081,1047.57 684.5,1041.5C 685.348,1036.09 686.515,1030.76 688,1025.5C 689.73,1023.6 691.563,1021.93 693.5,1020.5 Z"/></g>
<g><path style="opacity:1" fill="#f0f0f0" d="M 213.5,1029.5 C 218.628,1029.11 223.628,1029.61 228.5,1031C 233.194,1037.1 232.194,1042.1 225.5,1046C 220.58,1047.25 215.58,1047.75 210.5,1047.5C 211.242,1041.46 212.242,1035.46 213.5,1029.5 Z"/></g>
<g><path style="opacity:1" fill="#080808" d="M 412.5,1091.5 C 421.284,1090.76 423.951,1094.26 420.5,1102C 416.445,1105.47 412.612,1105.3 409,1101.5C 407.756,1097.19 408.923,1093.86 412.5,1091.5 Z"/></g>
<g><path style="opacity:1" fill="#030303" d="M 943.5,1091.5 C 948.059,1091.61 952.392,1092.61 956.5,1094.5C 955.253,1097.33 953.753,1100 952,1102.5C 944.207,1100.11 940.707,1103.11 941.5,1111.5C 943.833,1111.5 946.167,1111.5 948.5,1111.5C 948.037,1114.48 947.704,1117.48 947.5,1120.5C 944.5,1120.5 941.5,1120.5 938.5,1120.5C 936.658,1132.21 934.491,1143.88 932,1155.5C 928.27,1156.46 924.437,1156.79 920.5,1156.5C 922.501,1144.83 924.501,1133.16 926.5,1121.5C 924.833,1121.5 923.167,1121.5 921.5,1121.5C 921.933,1118.83 922.433,1116.17 923,1113.5C 925,1112.83 927,1112.17 929,1111.5C 929.748,1101.6 934.581,1094.94 943.5,1091.5 Z"/></g>
<g><path style="opacity:1" fill="#020202" d="M 383.5,1092.5 C 387.555,1092.18 391.555,1092.51 395.5,1093.5C 391.265,1111.34 387.931,1129.34 385.5,1147.5C 386.5,1147.5 387.5,1147.5 388.5,1147.5C 388.5,1150.5 388.5,1153.5 388.5,1156.5C 382.977,1158.58 378.143,1157.58 374,1153.5C 373.399,1151.86 372.899,1150.2 372.5,1148.5C 376.169,1129.82 379.836,1111.15 383.5,1092.5 Z"/></g>
<g><path style="opacity:1" fill="#010101" d="M 625.5,1092.5 C 629.5,1092.5 633.5,1092.5 637.5,1092.5C 636.307,1100.96 634.807,1109.29 633,1117.5C 638.824,1111.67 645.658,1109.84 653.5,1112C 655.049,1113.21 656.215,1114.71 657,1116.5C 657.667,1120.83 657.667,1125.17 657,1129.5C 654.972,1138.47 653.139,1147.47 651.5,1156.5C 647.486,1156.67 643.486,1156.5 639.5,1156C 642.627,1145.04 644.46,1133.87 645,1122.5C 639.106,1120.44 634.439,1122.1 631,1127.5C 628.971,1137.14 627.138,1146.81 625.5,1156.5C 621.5,1156.5 617.5,1156.5 613.5,1156.5C 617.886,1135.24 621.886,1113.9 625.5,1092.5 Z"/></g>
<g><path style="opacity:1" fill="#020202" d="M 675.5,1092.5 C 679.555,1092.18 683.555,1092.51 687.5,1093.5C 683.265,1111.34 679.931,1129.34 677.5,1147.5C 678.5,1147.5 679.5,1147.5 680.5,1147.5C 680.5,1150.5 680.5,1153.5 680.5,1156.5C 674.977,1158.58 670.143,1157.58 666,1153.5C 665.399,1151.86 664.899,1150.2 664.5,1148.5C 668.169,1129.82 671.836,1111.15 675.5,1092.5 Z"/></g>
<g><path style="opacity:1" fill="#020202" d="M 823.5,1092.5 C 827.555,1092.18 831.555,1092.51 835.5,1093.5C 830.782,1114.42 826.449,1135.42 822.5,1156.5C 819.15,1156.67 815.817,1156.5 812.5,1156C 813.76,1154.19 813.76,1152.35 812.5,1150.5C 806.8,1156.09 800.133,1157.92 792.5,1156C 787.873,1152.14 785.539,1147.14 785.5,1141C 785.999,1130.67 789.999,1122 797.5,1115C 804.98,1109.46 812.147,1109.62 819,1115.5C 820.335,1107.82 821.835,1100.16 823.5,1092.5 Z"/></g>
<g><path style="opacity:1" fill="#050505" d="M 221.5,1095.5 C 229.635,1095.43 236.301,1098.43 241.5,1104.5C 239.478,1107.36 236.978,1109.69 234,1111.5C 228.746,1105.88 223.08,1105.22 217,1109.5C 216.333,1111.5 216.333,1113.5 217,1115.5C 223.181,1119.93 229.181,1124.59 235,1129.5C 239.426,1146.44 232.759,1155.78 215,1157.5C 206.353,1157.09 199.519,1153.43 194.5,1146.5C 197.241,1144.05 200.075,1141.71 203,1139.5C 208.94,1147.09 215.94,1148.43 224,1143.5C 224.667,1141.5 224.667,1139.5 224,1137.5C 218.693,1132.68 213.027,1128.35 207,1124.5C 200.651,1109.2 205.484,1099.53 221.5,1095.5 Z"/></g>
<g><path style="opacity:1" fill="#020202" d="M 538.5,1144.5 C 537.957,1144.56 537.624,1144.89 537.5,1145.5C 546.207,1145.85 554.54,1146.85 562.5,1148.5C 561.908,1151.13 561.575,1153.79 561.5,1156.5C 547.833,1156.5 534.167,1156.5 520.5,1156.5C 520.865,1153.38 521.698,1150.38 523,1147.5C 533.766,1134.57 543.933,1121.24 553.5,1107.5C 546.521,1107.11 539.188,1106.11 531.5,1104.5C 532.265,1101.9 532.599,1099.24 532.5,1096.5C 545.167,1096.5 557.833,1096.5 570.5,1096.5C 570.592,1100.06 569.759,1103.39 568,1106.5C 557.952,1119.04 548.118,1131.71 538.5,1144.5 Z"/></g>
<g><path style="opacity:1" fill="#030303" d="M 251.5,1124.5 C 252.434,1123.43 252.768,1122.1 252.5,1120.5C 250.5,1120.5 248.5,1120.5 246.5,1120.5C 247.092,1117.87 247.425,1115.21 247.5,1112.5C 249.92,1112.71 252.253,1112.37 254.5,1111.5C 255.83,1108.17 257.164,1104.84 258.5,1101.5C 261.768,1100.51 265.102,1100.18 268.5,1100.5C 267.833,1104.17 267.167,1107.83 266.5,1111.5C 269.833,1111.5 273.167,1111.5 276.5,1111.5C 276.037,1114.48 275.704,1117.48 275.5,1120.5C 271.563,1120.21 267.73,1120.54 264,1121.5C 261.69,1129.7 260.69,1138.04 261,1146.5C 263.405,1147.27 265.905,1147.77 268.5,1148C 269.316,1149.92 269.983,1151.92 270.5,1154C 270.095,1154.95 269.428,1155.61 268.5,1156C 263.484,1157.84 258.484,1157.84 253.5,1156C 249.368,1153.39 247.368,1149.56 247.5,1144.5C 249.219,1137.91 250.552,1131.24 251.5,1124.5 Z"/></g>
<g><path style="opacity:1" fill="#020202" d="M 429.5,1124.5 C 430.434,1123.43 430.768,1122.1 430.5,1120.5C 428.5,1120.5 426.5,1120.5 424.5,1120.5C 425.21,1118.25 425.71,1115.92 426,1113.5C 428.124,1112.77 430.291,1112.11 432.5,1111.5C 434.026,1108.26 435.36,1104.92 436.5,1101.5C 439.768,1100.51 443.102,1100.18 446.5,1100.5C 445.833,1104.17 445.167,1107.83 444.5,1111.5C 447.833,1111.5 451.167,1111.5 454.5,1111.5C 454.037,1114.48 453.704,1117.48 453.5,1120.5C 449.327,1119.96 445.494,1120.62 442,1122.5C 439.562,1130.35 438.562,1138.35 439,1146.5C 441.405,1147.27 443.905,1147.77 446.5,1148C 447.316,1149.92 447.983,1151.92 448.5,1154C 448.095,1154.95 447.428,1155.61 446.5,1156C 441.484,1157.84 436.484,1157.84 431.5,1156C 427.451,1153.55 425.451,1149.88 425.5,1145C 427.156,1138.22 428.49,1131.38 429.5,1124.5 Z"/></g>
<g><path style="opacity:1" fill="#afafaf" d="M 531.5,1104.5 C 539.188,1106.11 546.521,1107.11 553.5,1107.5C 545.833,1107.5 538.167,1107.5 530.5,1107.5C 530.263,1106.21 530.596,1105.21 531.5,1104.5 Z"/></g>
<g><path style="opacity:1" fill="#040404" d="M 300.5,1110.5 C 311.303,1110.3 316.97,1115.63 317.5,1126.5C 316.703,1129.82 316.036,1133.15 315.5,1136.5C 306.833,1136.5 298.167,1136.5 289.5,1136.5C 290.793,1148.48 296.793,1151.48 307.5,1145.5C 308.965,1147.6 310.299,1149.77 311.5,1152C 302.395,1158.55 293.062,1158.89 283.5,1153C 274.445,1138.77 276.445,1126.1 289.5,1115C 293.053,1112.88 296.72,1111.38 300.5,1110.5 Z"/></g>
<g><path style="opacity:1" fill="#030303" d="M 344.5,1110.5 C 349.453,1110.36 353.287,1112.36 356,1116.5C 357.02,1115.11 357.853,1113.61 358.5,1112C 361.482,1111.5 364.482,1111.34 367.5,1111.5C 364.862,1126.19 362.029,1140.86 359,1155.5C 356.766,1169.37 348.599,1176.37 334.5,1176.5C 328.614,1175.88 323.614,1173.55 319.5,1169.5C 320.811,1166.86 322.478,1164.53 324.5,1162.5C 339.579,1170.21 347.746,1165.54 349,1148.5C 341.746,1155.3 334.079,1155.97 326,1150.5C 320.166,1136.01 323.333,1123.85 335.5,1114C 338.459,1112.4 341.459,1111.23 344.5,1110.5 Z"/></g>
<g><path style="opacity:1" fill="#040404" d="M 592.5,1110.5 C 603.303,1110.3 608.97,1115.63 609.5,1126.5C 608.703,1129.82 608.036,1133.15 607.5,1136.5C 598.833,1136.5 590.167,1136.5 581.5,1136.5C 582.793,1148.48 588.793,1151.48 599.5,1145.5C 600.965,1147.6 602.299,1149.77 603.5,1152C 594.395,1158.55 585.062,1158.89 575.5,1153C 566.4,1138.7 568.4,1126.03 581.5,1115C 585.053,1112.88 588.72,1111.38 592.5,1110.5 Z"/></g>
<g><path style="opacity:1" fill="#040404" d="M 712.5,1110.5 C 723.303,1110.3 728.97,1115.63 729.5,1126.5C 728.703,1129.82 728.036,1133.15 727.5,1136.5C 718.833,1136.5 710.167,1136.5 701.5,1136.5C 702.793,1148.48 708.793,1151.48 719.5,1145.5C 720.965,1147.6 722.299,1149.77 723.5,1152C 714.395,1158.55 705.062,1158.89 695.5,1153C 686.4,1138.7 688.4,1126.03 701.5,1115C 705.053,1112.88 708.72,1111.38 712.5,1110.5 Z"/></g>
<g><path style="opacity:1" fill="#010101" d="M 766.5,1110.5 C 771.704,1110.07 775.538,1112.07 778,1116.5C 778.667,1120.83 778.667,1125.17 778,1129.5C 775.972,1138.48 774.138,1147.48 772.5,1156.5C 768.486,1156.67 764.486,1156.5 760.5,1156C 763.627,1145.04 765.46,1133.87 766,1122.5C 760.106,1120.44 755.439,1122.1 752,1127.5C 749.971,1137.14 748.138,1146.81 746.5,1156.5C 742.5,1156.5 738.5,1156.5 734.5,1156.5C 737.266,1142.17 740.1,1127.83 743,1113.5C 745.804,1111.66 748.97,1110.99 752.5,1111.5C 752.201,1113.6 752.534,1115.6 753.5,1117.5C 757.492,1114.34 761.825,1112.01 766.5,1110.5 Z"/></g>
<g><path style="opacity:1" fill="#050505" d="M 859.5,1110.5 C 872.633,1111.46 878.799,1118.46 878,1131.5C 875.237,1149.96 864.737,1158.12 846.5,1156C 838.885,1152.28 835.219,1146.12 835.5,1137.5C 837.295,1122.72 845.295,1113.72 859.5,1110.5 Z"/></g>
<g><path style="opacity:1" fill="#030303" d="M 912.5,1110.5 C 918.756,1109.64 920.589,1111.98 918,1117.5C 917.5,1118.5 917,1119.5 916.5,1120.5C 908.898,1120.38 903.398,1123.72 900,1130.5C 898.304,1139.15 896.804,1147.81 895.5,1156.5C 891.5,1156.5 887.5,1156.5 883.5,1156.5C 886.422,1141.55 889.089,1126.55 891.5,1111.5C 894.833,1111.5 898.167,1111.5 901.5,1111.5C 901.335,1114.52 901.502,1117.52 902,1120.5C 904.738,1116.26 908.238,1112.93 912.5,1110.5 Z"/></g>
<g><path style="opacity:1" fill="#000000" d="M 406.5,1111.5 C 410.514,1111.33 414.514,1111.5 418.5,1112C 415.056,1126.72 412.056,1141.55 409.5,1156.5C 405.5,1156.5 401.5,1156.5 397.5,1156.5C 400.373,1141.47 403.373,1126.47 406.5,1111.5 Z"/></g>
<g><path style="opacity:1" fill="#030303" d="M 477.5,1121.5 C 472.695,1120.51 467.695,1120.18 462.5,1120.5C 462.5,1119.5 462.5,1118.5 462.5,1117.5C 463.15,1115.56 463.483,1113.56 463.5,1111.5C 473.833,1111.5 484.167,1111.5 494.5,1111.5C 495.021,1115.72 493.854,1119.39 491,1122.5C 483.605,1130.06 476.771,1138.06 470.5,1146.5C 476.463,1147.5 482.463,1147.83 488.5,1147.5C 488.148,1150.43 487.482,1153.26 486.5,1156C 475.152,1156.83 463.819,1156.67 452.5,1155.5C 453.189,1153.56 453.689,1151.56 454,1149.5C 462.044,1140.29 469.878,1130.96 477.5,1121.5 Z"/></g>
<g><path style="opacity:1" fill="#777777" d="M 246.5,1120.5 C 248.5,1120.5 250.5,1120.5 252.5,1120.5C 252.768,1122.1 252.434,1123.43 251.5,1124.5C 251.5,1123.5 251.5,1122.5 251.5,1121.5C 249.585,1121.78 247.919,1121.45 246.5,1120.5 Z"/></g>
<g><path style="opacity:1" fill="#f2f2f2" d="M 296.5,1120.5 C 304.753,1118.12 308.419,1121.12 307.5,1129.5C 301.794,1129.83 296.128,1129.5 290.5,1128.5C 292.14,1125.53 294.14,1122.87 296.5,1120.5 Z"/></g>
<g><path style="opacity:1" fill="#777777" d="M 424.5,1120.5 C 426.5,1120.5 428.5,1120.5 430.5,1120.5C 430.768,1122.1 430.434,1123.43 429.5,1124.5C 429.5,1123.5 429.5,1122.5 429.5,1121.5C 427.585,1121.78 425.919,1121.45 424.5,1120.5 Z"/></g>
<g><path style="opacity:1" fill="#7c7c7c" d="M 462.5,1117.5 C 462.5,1118.5 462.5,1119.5 462.5,1120.5C 467.695,1120.18 472.695,1120.51 477.5,1121.5C 472.167,1121.5 466.833,1121.5 461.5,1121.5C 461.232,1119.9 461.566,1118.57 462.5,1117.5 Z"/></g>
<g><path style="opacity:1" fill="#f2f2f2" d="M 588.5,1120.5 C 596.753,1118.12 600.419,1121.12 599.5,1129.5C 593.794,1129.83 588.128,1129.5 582.5,1128.5C 584.14,1125.53 586.14,1122.87 588.5,1120.5 Z"/></g>
<g><path style="opacity:1" fill="#f2f2f2" d="M 708.5,1120.5 C 716.753,1118.12 720.419,1121.12 719.5,1129.5C 713.794,1129.83 708.128,1129.5 702.5,1128.5C 704.14,1125.53 706.14,1122.87 708.5,1120.5 Z"/></g>
<g><path style="opacity:1" fill="#f4f4f4" d="M 856.5,1120.5 C 863.408,1119.91 866.408,1123.08 865.5,1130C 865.862,1136.25 863.862,1141.58 859.5,1146C 855.526,1148.36 852.026,1147.86 849,1144.5C 846.4,1134.69 848.9,1126.69 856.5,1120.5 Z"/></g>
<g><path style="opacity:1" fill="#f0f0f0" d="M 344.5,1120.5 C 349.136,1119.81 352.136,1121.65 353.5,1126C 352.539,1130.55 351.372,1135.05 350,1139.5C 346.901,1143.97 342.735,1145.47 337.5,1144C 333.132,1134.09 335.465,1126.26 344.5,1120.5 Z"/></g>
<g><path style="opacity:1" fill="#f0f0f0" d="M 807.5,1120.5 C 812.938,1119.45 815.938,1121.62 816.5,1127C 815.795,1131.52 814.962,1136.02 814,1140.5C 810.145,1147.31 805.145,1148.64 799,1144.5C 796.813,1134.55 799.646,1126.55 807.5,1120.5 Z"/></g>
<g><path style="opacity:1" fill="#010101" d="M 497.5,1128.5 C 504.5,1128.5 511.5,1128.5 518.5,1128.5C 518.351,1136.43 514.185,1139.43 506,1137.5C 502.5,1137.33 499,1137.17 495.5,1137C 496.713,1134.31 497.38,1131.48 497.5,1128.5 Z"/></g>
<g><path style="opacity:1" fill="#ababab" d="M 538.5,1144.5 C 546.65,1145.49 554.983,1145.83 563.5,1145.5C 563.737,1146.79 563.404,1147.79 562.5,1148.5C 554.54,1146.85 546.207,1145.85 537.5,1145.5C 537.624,1144.89 537.957,1144.56 538.5,1144.5 Z"/></g>
<g><path style="opacity:1" fill="#0064af" d="M -0.5,1325.5 C 443.5,1325.5 887.5,1325.5 1331.5,1325.5C 1331.5,1337.17 1331.5,1348.83 1331.5,1360.5C 887.5,1360.5 443.5,1360.5 -0.5,1360.5C -0.5,1348.83 -0.5,1337.17 -0.5,1325.5 Z"/></g>
</svg>
